<svg width="587" height="692" viewBox="0 0 587 692" fill="none" xmlns="http://www.w3.org/2000/svg">
<path fill-rule="evenodd" clip-rule="evenodd" d="M266.32 3.25151C333.236 26.4267 307.925 142.695 361.31 189.223C399.403 222.422 471.091 179.82 508.228 214.085C543.906 247.004 529.661 306.241 539.628 353.751C552.275 414.029 611.245 482.184 574.909 531.915C536.807 584.064 444.357 533.094 386.959 562.703C333.862 590.094 326.017 693.51 266.32 691.104C205.445 688.65 201.158 588.025 151.168 553.199C107.56 522.819 13.8652 558.326 1.52131 506.632C-12.9548 446.009 80.0569 411.484 103.542 353.751C115.648 323.993 99.6127 291.041 102.247 259.023C106.518 207.122 95.7295 150.815 123.848 106.982C156.116 56.6791 209.848 -16.3066 266.32 3.25151Z" fill="#FF8C00"/>
<path fill-rule="evenodd" clip-rule="evenodd" d="M266.32 3.25151C333.236 26.4267 307.925 142.695 361.31 189.223C399.403 222.422 471.091 179.82 508.228 214.085C543.906 247.004 529.661 306.241 539.628 353.751C552.275 414.029 611.245 482.184 574.909 531.915C536.807 584.064 444.357 533.094 386.959 562.703C333.862 590.094 326.017 693.51 266.32 691.104C205.445 688.65 201.158 588.025 151.168 553.199C107.56 522.819 13.8652 558.326 1.52131 506.632C-12.9548 446.009 80.0569 411.484 103.542 353.751C115.648 323.993 99.6127 291.041 102.247 259.023C106.518 207.122 95.7295 150.815 123.848 106.982C156.116 56.6791 209.848 -16.3066 266.32 3.25151Z" fill="url(#paint0_linear)"/>
<defs>
<linearGradient id="paint0_linear" x1="230" y1="42" x2="293.289" y2="691.146" gradientUnits="userSpaceOnUse">
<stop stop-color="#111111"/>
<stop offset="1" stop-color="white" stop-opacity="0"/>
</linearGradient>
</defs>
</svg>
