<svg width="587" height="692" viewBox="0 0 587 692" fill="none" xmlns="http://www.w3.org/2000/svg">
<path fill-rule="evenodd" clip-rule="evenodd" d="M266.32 687.894C333.236 664.719 307.925 548.45 361.31 501.923C399.403 468.723 471.091 511.325 508.228 477.06C543.906 444.142 529.661 384.905 539.628 337.395C552.275 277.116 611.245 208.961 574.909 159.231C536.807 107.082 444.357 158.052 386.959 128.442C333.862 101.052 326.017 -2.36493 266.32 0.0413208C205.445 2.49506 201.158 103.121 151.168 137.946C107.56 168.326 13.8652 132.819 1.52131 184.513C-12.9548 245.136 80.0569 279.661 103.542 337.395C115.648 367.153 99.6127 400.104 102.247 432.122C106.518 484.023 95.7295 540.331 123.848 584.164C156.116 634.466 209.848 707.452 266.32 687.894Z" fill="#ECEDF1"/>
<path fill-rule="evenodd" clip-rule="evenodd" d="M266.32 687.894C333.236 664.719 307.925 548.45 361.31 501.923C399.403 468.723 471.091 511.325 508.228 477.06C543.906 444.142 529.661 384.905 539.628 337.395C552.275 277.116 611.245 208.961 574.909 159.231C536.807 107.082 444.357 158.052 386.959 128.442C333.862 101.052 326.017 -2.36493 266.32 0.0413208C205.445 2.49506 201.158 103.121 151.168 137.946C107.56 168.326 13.8652 132.819 1.52131 184.513C-12.9548 245.136 80.0569 279.661 103.542 337.395C115.648 367.153 99.6127 400.104 102.247 432.122C106.518 484.023 95.7295 540.331 123.848 584.164C156.116 634.466 209.848 707.452 266.32 687.894Z" fill="url(#paint0_linear)"/>
<defs>
<linearGradient id="paint0_linear" x1="154.5" y1="1374.65" x2="265" y2="0.145504" gradientUnits="userSpaceOnUse">
<stop stop-color="#FF8C00"/>
<stop offset="1" stop-color="white" stop-opacity="0"/>
</linearGradient>
</defs>
</svg>
