<svg width="53" height="78" viewBox="0 0 53 78" fill="none" xmlns="http://www.w3.org/2000/svg">
<path d="M13.2939 39.4757L20.3416 36.9106M17.9094 46.3092L24.9571 43.7441M22.525 53.1427L29.3021 50.676M29.697 37.7622L37.6844 34.855" stroke="#FF8C00" stroke-width="3"/>
<ellipse cx="29.6971" cy="37.7622" rx="1.5" ry="1" transform="rotate(-20 29.6971 37.7622)" fill="#FF8C00"/>
<ellipse cx="20.3416" cy="36.9106" rx="2" ry="1" transform="rotate(-20 20.3416 36.9106)" fill="#FF8C00"/>
<ellipse cx="24.9571" cy="43.7441" rx="2" ry="1" transform="rotate(-20 24.9571 43.7441)" fill="#FF8C00"/>
<ellipse cx="29.5727" cy="50.5776" rx="2" ry="1" transform="rotate(-20 29.5727 50.5776)" fill="#FF8C00"/>
<path d="M17.6487 23.9656C25.2449 22.5031 5.91583 8.26415 5.4516 9.47417C3.90648 13.5015 1.90748 14.1618 6.9187 20.1157C11.9299 26.0695 13.1465 24.8324 17.6487 23.9656Z" stroke="#7BB661" stroke-width="3"/>
<path d="M23.5855 21.8048C16.8264 25.5671 22.4807 2.235 23.6141 2.86352C27.3865 4.95546 29.3423 4.17637 29.3305 11.9584C29.3187 19.7405 27.5916 19.5748 23.5855 21.8048Z" stroke="#7BB661" stroke-width="3"/>
<path d="M37.2588 30.4766C37.2588 30.4766 42.5116 69.4809 38.3552 70.9937C34.1987 72.5065 13.1511 39.251 13.1511 39.251C13.1511 39.251 5.2565 29.631 21.1897 23.8318C37.1228 18.0326 37.2588 30.4766 37.2588 30.4766Z" stroke="#FF8C00" stroke-width="3"/>
<ellipse cx="17.8968" cy="37.7286" rx="5.51495" ry="2.10461" transform="rotate(-18.2846 17.8968 37.7286)" fill="#FF8C00"/>
<ellipse cx="21.9648" cy="44.9344" rx="5.51495" ry="2.3213" transform="rotate(-18.2846 21.9648 44.9344)" fill="#FF8C00"/>
<ellipse cx="26.8717" cy="51.6526" rx="5.51495" ry="2.02459" transform="rotate(-18.2846 26.8717 51.6526)" fill="#FF8C00"/>
<ellipse cx="32.7595" cy="36.3727" rx="5.49167" ry="2.36181" transform="rotate(-18.2846 32.7595 36.3727)" fill="#FF8C00"/>
</svg>
