<svg width="166" height="86" viewBox="0 0 166 86" fill="none" xmlns="http://www.w3.org/2000/svg">
<path d="M13.2938 39.4757L20.3415 36.9106M17.9094 46.3092L24.9571 43.7441M22.5249 53.1427L29.302 50.676M29.697 37.7622L37.6844 34.855" stroke="#FB5607" stroke-width="3"/>
<ellipse cx="29.697" cy="37.7622" rx="1.5" ry="1" transform="rotate(-20 29.697 37.7622)" fill="#FB5607"/>
<ellipse cx="20.3415" cy="36.9106" rx="2" ry="1" transform="rotate(-20 20.3415 36.9106)" fill="#FB5607"/>
<ellipse cx="24.9571" cy="43.7441" rx="2" ry="1" transform="rotate(-20 24.9571 43.7441)" fill="#FB5607"/>
<ellipse cx="29.5727" cy="50.5776" rx="2" ry="1" transform="rotate(-20 29.5727 50.5776)" fill="#FB5607"/>
<path d="M17.6487 23.9655C25.2449 22.503 5.91583 8.26408 5.4516 9.47411C3.90648 13.5014 1.90748 14.1618 6.9187 20.1156C11.9299 26.0695 13.1465 24.8324 17.6487 23.9655Z" stroke="#7BB661" stroke-width="5"/>
<path d="M23.5854 21.8048C16.8264 25.5672 22.4807 2.23506 23.6141 2.86359C27.3864 4.95552 29.3422 4.17643 29.3304 11.9585C29.3187 19.7406 27.5916 19.5749 23.5854 21.8048Z" stroke="#7BB661" stroke-width="5"/>
<path d="M37.2588 30.4766C37.2588 30.4766 42.5117 69.481 38.3552 70.9938C34.1988 72.5066 13.1512 39.2511 13.1512 39.2511C13.1512 39.2511 5.25656 29.631 21.1897 23.8318C37.1229 18.0326 37.2588 30.4766 37.2588 30.4766Z" stroke="#FB5607" stroke-width="5"/>
<ellipse cx="17.8968" cy="37.7285" rx="5.51495" ry="2.10461" transform="rotate(-18.2846 17.8968 37.7285)" fill="#FB5607"/>
<ellipse cx="21.9648" cy="44.9343" rx="5.51495" ry="2.3213" transform="rotate(-18.2846 21.9648 44.9343)" fill="#FB5607"/>
<ellipse cx="26.8717" cy="51.6526" rx="5.51495" ry="2.02459" transform="rotate(-18.2846 26.8717 51.6526)" fill="#FB5607"/>
<ellipse cx="32.7596" cy="36.3726" rx="5.49167" ry="2.36181" transform="rotate(-18.2846 32.7596 36.3726)" fill="#FB5607"/>
<path d="M47.6 73.24C46.8267 73.24 46.2 73 45.72 72.52C45.2667 72.04 45.04 71.4133 45.04 70.64V47.24C45.04 46.4667 45.2533 45.8667 45.68 45.44C46.1333 45.0133 46.7467 44.8 47.52 44.8H61.56C63.1867 44.8 64 45.4933 64 46.88C64 48.24 63.1867 48.92 61.56 48.92H50.12V56.6H60.76C62.3867 56.6 63.2 57.2933 63.2 58.68C63.2 60.04 62.3867 60.72 60.76 60.72H50.12V70.64C50.12 71.4133 49.8933 72.04 49.44 72.52C48.9867 73 48.3733 73.24 47.6 73.24ZM75.7856 73.32C73.7856 73.32 72.0256 72.9067 70.5056 72.08C69.0123 71.2533 67.8523 70.0667 67.0256 68.52C66.199 66.9733 65.7856 65.1733 65.7856 63.12C65.7856 61.0667 66.199 59.28 67.0256 57.76C67.8523 56.2133 69.0123 55.0267 70.5056 54.2C72.0256 53.3733 73.7856 52.96 75.7856 52.96C77.7856 52.96 79.5323 53.3733 81.0256 54.2C82.5456 55.0267 83.7056 56.2133 84.5056 57.76C85.3323 59.28 85.7456 61.0667 85.7456 63.12C85.7456 65.1733 85.3323 66.9733 84.5056 68.52C83.7056 70.0667 82.5456 71.2533 81.0256 72.08C79.5323 72.9067 77.7856 73.32 75.7856 73.32ZM75.7456 69.44C77.3723 69.44 78.6123 68.9067 79.4656 67.84C80.319 66.7733 80.7456 65.2 80.7456 63.12C80.7456 61.0667 80.319 59.5067 79.4656 58.44C78.6123 57.3467 77.3856 56.8 75.7856 56.8C74.1856 56.8 72.9456 57.3467 72.0656 58.44C71.2123 59.5067 70.7856 61.0667 70.7856 63.12C70.7856 65.2 71.2123 66.7733 72.0656 67.84C72.919 68.9067 74.1456 69.44 75.7456 69.44ZM98.7934 73.32C96.7934 73.32 95.0334 72.9067 93.5134 72.08C92.0201 71.2533 90.8601 70.0667 90.0334 68.52C89.2068 66.9733 88.7934 65.1733 88.7934 63.12C88.7934 61.0667 89.2068 59.28 90.0334 57.76C90.8601 56.2133 92.0201 55.0267 93.5134 54.2C95.0334 53.3733 96.7934 52.96 98.7934 52.96C100.793 52.96 102.54 53.3733 104.033 54.2C105.553 55.0267 106.713 56.2133 107.513 57.76C108.34 59.28 108.753 61.0667 108.753 63.12C108.753 65.1733 108.34 66.9733 107.513 68.52C106.713 70.0667 105.553 71.2533 104.033 72.08C102.54 72.9067 100.793 73.32 98.7934 73.32ZM98.7534 69.44C100.38 69.44 101.62 68.9067 102.473 67.84C103.327 66.7733 103.753 65.2 103.753 63.12C103.753 61.0667 103.327 59.5067 102.473 58.44C101.62 57.3467 100.393 56.8 98.7934 56.8C97.1934 56.8 95.9534 57.3467 95.0734 58.44C94.2201 59.5067 93.7934 61.0667 93.7934 63.12C93.7934 65.2 94.2201 66.7733 95.0734 67.84C95.9268 68.9067 97.1534 69.44 98.7534 69.44ZM129.201 44.6C129.948 44.6 130.561 44.8133 131.041 45.24C131.521 45.6667 131.761 46.2267 131.761 46.92V70.84C131.761 71.56 131.535 72.1333 131.081 72.56C130.628 72.9867 130.028 73.2 129.281 73.2C128.535 73.2 127.935 72.9867 127.481 72.56C127.028 72.1333 126.801 71.56 126.801 70.84V69.84C126.215 70.9333 125.361 71.7867 124.241 72.4C123.148 73.0133 121.895 73.32 120.481 73.32C118.801 73.32 117.295 72.8933 115.961 72.04C114.655 71.1867 113.628 69.9867 112.881 68.44C112.161 66.8667 111.801 65.0667 111.801 63.04C111.801 61.0133 112.161 59.24 112.881 57.72C113.628 56.2 114.655 55.0267 115.961 54.2C117.268 53.3733 118.775 52.96 120.481 52.96C121.895 52.96 123.148 53.2533 124.241 53.84C125.335 54.4267 126.175 55.2533 126.761 56.32V46.84C126.761 46.1733 126.975 45.64 127.401 45.24C127.855 44.8133 128.455 44.6 129.201 44.6ZM121.801 69.44C123.401 69.44 124.628 68.8933 125.481 67.8C126.361 66.7067 126.801 65.1467 126.801 63.12C126.801 61.0933 126.361 59.5467 125.481 58.48C124.628 57.3867 123.415 56.84 121.841 56.84C120.241 56.84 119.001 57.3733 118.121 58.44C117.241 59.5067 116.801 61.04 116.801 63.04C116.801 65.0667 117.241 66.64 118.121 67.76C119.001 68.88 120.228 69.44 121.801 69.44ZM139.385 73.24C138.665 73.24 138.065 73.04 137.585 72.64C137.131 72.2133 136.905 71.6133 136.905 70.84V55.4C136.905 54.6267 137.131 54.04 137.585 53.64C138.065 53.24 138.665 53.04 139.385 53.04C140.105 53.04 140.705 53.24 141.185 53.64C141.665 54.04 141.905 54.6267 141.905 55.4V70.84C141.905 71.6133 141.665 72.2133 141.185 72.64C140.705 73.04 140.105 73.24 139.385 73.24ZM139.385 49.48C138.478 49.48 137.758 49.24 137.225 48.76C136.691 48.2533 136.425 47.6 136.425 46.8C136.425 46 136.691 45.36 137.225 44.88C137.758 44.4 138.478 44.16 139.385 44.16C140.265 44.16 140.971 44.4 141.505 44.88C142.065 45.36 142.345 46 142.345 46.8C142.345 47.6 142.078 48.2533 141.545 48.76C141.011 49.24 140.291 49.48 139.385 49.48ZM162.541 67.64C162.994 67.64 163.354 67.8133 163.621 68.16C163.914 68.5067 164.061 68.9733 164.061 69.56C164.061 70.3867 163.568 71.08 162.581 71.64C161.674 72.1467 160.648 72.56 159.501 72.88C158.354 73.1733 157.261 73.32 156.221 73.32C153.074 73.32 150.581 72.4133 148.741 70.6C146.901 68.7867 145.981 66.3067 145.981 63.16C145.981 61.16 146.381 59.3867 147.181 57.84C147.981 56.2933 149.101 55.0933 150.541 54.24C152.008 53.3867 153.661 52.96 155.501 52.96C157.261 52.96 158.794 53.3467 160.101 54.12C161.408 54.8933 162.421 55.9867 163.141 57.4C163.861 58.8133 164.221 60.48 164.221 62.4C164.221 63.5467 163.714 64.12 162.701 64.12H150.901C151.061 65.96 151.581 67.32 152.461 68.2C153.341 69.0533 154.621 69.48 156.301 69.48C157.154 69.48 157.901 69.3733 158.541 69.16C159.208 68.9467 159.954 68.6533 160.781 68.28C161.581 67.8533 162.168 67.64 162.541 67.64ZM155.621 56.48C154.261 56.48 153.168 56.9067 152.341 57.76C151.541 58.6133 151.061 59.84 150.901 61.44H159.941C159.888 59.8133 159.488 58.5867 158.741 57.76C157.994 56.9067 156.954 56.48 155.621 56.48Z" fill="#FB5607"/>
</svg>
