<svg width="166" height="86" viewBox="0 0 166 86" fill="none" xmlns="http://www.w3.org/2000/svg">
<g filter="url(#filter0_d)">
<path d="M38.6 72.24C37.8267 72.24 37.2 72 36.72 71.52C36.2667 71.04 36.04 70.4133 36.04 69.64V46.24C36.04 45.4667 36.2533 44.8667 36.68 44.44C37.1333 44.0133 37.7467 43.8 38.52 43.8H52.56C54.1867 43.8 55 44.4933 55 45.88C55 47.24 54.1867 47.92 52.56 47.92H41.12V55.6H51.76C53.3867 55.6 54.2 56.2933 54.2 57.68C54.2 59.04 53.3867 59.72 51.76 59.72H41.12V69.64C41.12 70.4133 40.8933 71.04 40.44 71.52C39.9867 72 39.3733 72.24 38.6 72.24ZM66.7856 72.32C64.7856 72.32 63.0256 71.9067 61.5056 71.08C60.0123 70.2533 58.8523 69.0667 58.0256 67.52C57.199 65.9733 56.7856 64.1733 56.7856 62.12C56.7856 60.0667 57.199 58.28 58.0256 56.76C58.8523 55.2133 60.0123 54.0267 61.5056 53.2C63.0256 52.3733 64.7856 51.96 66.7856 51.96C68.7856 51.96 70.5323 52.3733 72.0256 53.2C73.5456 54.0267 74.7056 55.2133 75.5056 56.76C76.3323 58.28 76.7456 60.0667 76.7456 62.12C76.7456 64.1733 76.3323 65.9733 75.5056 67.52C74.7056 69.0667 73.5456 70.2533 72.0256 71.08C70.5323 71.9067 68.7856 72.32 66.7856 72.32ZM66.7456 68.44C68.3723 68.44 69.6123 67.9067 70.4656 66.84C71.319 65.7733 71.7456 64.2 71.7456 62.12C71.7456 60.0667 71.319 58.5067 70.4656 57.44C69.6123 56.3467 68.3856 55.8 66.7856 55.8C65.1856 55.8 63.9456 56.3467 63.0656 57.44C62.2123 58.5067 61.7856 60.0667 61.7856 62.12C61.7856 64.2 62.2123 65.7733 63.0656 66.84C63.919 67.9067 65.1456 68.44 66.7456 68.44ZM89.7934 72.32C87.7934 72.32 86.0334 71.9067 84.5134 71.08C83.0201 70.2533 81.8601 69.0667 81.0334 67.52C80.2068 65.9733 79.7934 64.1733 79.7934 62.12C79.7934 60.0667 80.2068 58.28 81.0334 56.76C81.8601 55.2133 83.0201 54.0267 84.5134 53.2C86.0334 52.3733 87.7934 51.96 89.7934 51.96C91.7934 51.96 93.5401 52.3733 95.0334 53.2C96.5534 54.0267 97.7134 55.2133 98.5134 56.76C99.3401 58.28 99.7534 60.0667 99.7534 62.12C99.7534 64.1733 99.3401 65.9733 98.5134 67.52C97.7134 69.0667 96.5534 70.2533 95.0334 71.08C93.5401 71.9067 91.7934 72.32 89.7934 72.32ZM89.7534 68.44C91.3801 68.44 92.6201 67.9067 93.4734 66.84C94.3268 65.7733 94.7534 64.2 94.7534 62.12C94.7534 60.0667 94.3268 58.5067 93.4734 57.44C92.6201 56.3467 91.3934 55.8 89.7934 55.8C88.1934 55.8 86.9534 56.3467 86.0734 57.44C85.2201 58.5067 84.7934 60.0667 84.7934 62.12C84.7934 64.2 85.2201 65.7733 86.0734 66.84C86.9268 67.9067 88.1534 68.44 89.7534 68.44ZM120.201 43.6C120.948 43.6 121.561 43.8133 122.041 44.24C122.521 44.6667 122.761 45.2267 122.761 45.92V69.84C122.761 70.56 122.535 71.1333 122.081 71.56C121.628 71.9867 121.028 72.2 120.281 72.2C119.535 72.2 118.935 71.9867 118.481 71.56C118.028 71.1333 117.801 70.56 117.801 69.84V68.84C117.215 69.9333 116.361 70.7867 115.241 71.4C114.148 72.0133 112.895 72.32 111.481 72.32C109.801 72.32 108.295 71.8933 106.961 71.04C105.655 70.1867 104.628 68.9867 103.881 67.44C103.161 65.8667 102.801 64.0667 102.801 62.04C102.801 60.0133 103.161 58.24 103.881 56.72C104.628 55.2 105.655 54.0267 106.961 53.2C108.268 52.3733 109.775 51.96 111.481 51.96C112.895 51.96 114.148 52.2533 115.241 52.84C116.335 53.4267 117.175 54.2533 117.761 55.32V45.84C117.761 45.1733 117.975 44.64 118.401 44.24C118.855 43.8133 119.455 43.6 120.201 43.6ZM112.801 68.44C114.401 68.44 115.628 67.8933 116.481 66.8C117.361 65.7067 117.801 64.1467 117.801 62.12C117.801 60.0933 117.361 58.5467 116.481 57.48C115.628 56.3867 114.415 55.84 112.841 55.84C111.241 55.84 110.001 56.3733 109.121 57.44C108.241 58.5067 107.801 60.04 107.801 62.04C107.801 64.0667 108.241 65.64 109.121 66.76C110.001 67.88 111.228 68.44 112.801 68.44ZM130.385 72.24C129.665 72.24 129.065 72.04 128.585 71.64C128.131 71.2133 127.905 70.6133 127.905 69.84V54.4C127.905 53.6267 128.131 53.04 128.585 52.64C129.065 52.24 129.665 52.04 130.385 52.04C131.105 52.04 131.705 52.24 132.185 52.64C132.665 53.04 132.905 53.6267 132.905 54.4V69.84C132.905 70.6133 132.665 71.2133 132.185 71.64C131.705 72.04 131.105 72.24 130.385 72.24ZM130.385 48.48C129.478 48.48 128.758 48.24 128.225 47.76C127.691 47.2533 127.425 46.6 127.425 45.8C127.425 45 127.691 44.36 128.225 43.88C128.758 43.4 129.478 43.16 130.385 43.16C131.265 43.16 131.971 43.4 132.505 43.88C133.065 44.36 133.345 45 133.345 45.8C133.345 46.6 133.078 47.2533 132.545 47.76C132.011 48.24 131.291 48.48 130.385 48.48ZM153.541 66.64C153.994 66.64 154.354 66.8133 154.621 67.16C154.914 67.5067 155.061 67.9733 155.061 68.56C155.061 69.3867 154.568 70.08 153.581 70.64C152.674 71.1467 151.648 71.56 150.501 71.88C149.354 72.1733 148.261 72.32 147.221 72.32C144.074 72.32 141.581 71.4133 139.741 69.6C137.901 67.7867 136.981 65.3067 136.981 62.16C136.981 60.16 137.381 58.3867 138.181 56.84C138.981 55.2933 140.101 54.0933 141.541 53.24C143.008 52.3867 144.661 51.96 146.501 51.96C148.261 51.96 149.794 52.3467 151.101 53.12C152.408 53.8933 153.421 54.9867 154.141 56.4C154.861 57.8133 155.221 59.48 155.221 61.4C155.221 62.5467 154.714 63.12 153.701 63.12H141.901C142.061 64.96 142.581 66.32 143.461 67.2C144.341 68.0533 145.621 68.48 147.301 68.48C148.154 68.48 148.901 68.3733 149.541 68.16C150.208 67.9467 150.954 67.6533 151.781 67.28C152.581 66.8533 153.168 66.64 153.541 66.64ZM146.621 55.48C145.261 55.48 144.168 55.9067 143.341 56.76C142.541 57.6133 142.061 58.84 141.901 60.44H150.941C150.888 58.8133 150.488 57.5867 149.741 56.76C148.994 55.9067 147.954 55.48 146.621 55.48Z" fill="#FF8C00"/>
</g>
<path d="M13.2939 39.4757L20.3416 36.9106M17.9094 46.3092L24.9571 43.7441M22.525 53.1427L29.3021 50.676M29.697 37.7622L37.6844 34.855" stroke="#FF8C00" stroke-width="3"/>
<ellipse cx="29.6971" cy="37.7622" rx="1.5" ry="1" transform="rotate(-20 29.6971 37.7622)" fill="#FF8C00"/>
<ellipse cx="20.3416" cy="36.9106" rx="2" ry="1" transform="rotate(-20 20.3416 36.9106)" fill="#FF8C00"/>
<ellipse cx="24.9571" cy="43.7441" rx="2" ry="1" transform="rotate(-20 24.9571 43.7441)" fill="#FF8C00"/>
<ellipse cx="29.5727" cy="50.5776" rx="2" ry="1" transform="rotate(-20 29.5727 50.5776)" fill="#FF8C00"/>
<path d="M17.6487 23.9656C25.2449 22.5031 5.91583 8.26415 5.4516 9.47417C3.90648 13.5015 1.90748 14.1618 6.9187 20.1157C11.9299 26.0695 13.1465 24.8324 17.6487 23.9656Z" stroke="#7BB661" stroke-width="3"/>
<path d="M23.5855 21.8048C16.8264 25.5671 22.4807 2.235 23.6141 2.86352C27.3865 4.95546 29.3423 4.17637 29.3305 11.9584C29.3187 19.7405 27.5916 19.5748 23.5855 21.8048Z" stroke="#7BB661" stroke-width="3"/>
<path d="M37.2588 30.4766C37.2588 30.4766 42.5116 69.4809 38.3552 70.9937C34.1987 72.5065 13.1511 39.251 13.1511 39.251C13.1511 39.251 5.2565 29.631 21.1897 23.8318C37.1228 18.0326 37.2588 30.4766 37.2588 30.4766Z" stroke="#FF8C00" stroke-width="3"/>
<ellipse cx="17.8968" cy="37.7286" rx="5.51495" ry="2.10461" transform="rotate(-18.2846 17.8968 37.7286)" fill="#FF8C00"/>
<ellipse cx="21.9648" cy="44.9344" rx="5.51495" ry="2.3213" transform="rotate(-18.2846 21.9648 44.9344)" fill="#FF8C00"/>
<ellipse cx="26.8717" cy="51.6526" rx="5.51495" ry="2.02459" transform="rotate(-18.2846 26.8717 51.6526)" fill="#FF8C00"/>
<ellipse cx="32.7595" cy="36.3727" rx="5.49167" ry="2.36181" transform="rotate(-18.2846 32.7595 36.3727)" fill="#FF8C00"/>
<defs>
<filter id="filter0_d" x="32.04" y="43.16" width="127.181" height="37.16" filterUnits="userSpaceOnUse" color-interpolation-filters="sRGB">
<feFlood flood-opacity="0" result="BackgroundImageFix"/>
<feColorMatrix in="SourceAlpha" type="matrix" values="0 0 0 0 0 0 0 0 0 0 0 0 0 0 0 0 0 0 127 0"/>
<feOffset dy="4"/>
<feGaussianBlur stdDeviation="2"/>
<feColorMatrix type="matrix" values="0 0 0 0 0 0 0 0 0 0 0 0 0 0 0 0 0 0 0.25 0"/>
<feBlend mode="normal" in2="BackgroundImageFix" result="effect1_dropShadow"/>
<feBlend mode="normal" in="SourceGraphic" in2="effect1_dropShadow" result="shape"/>
</filter>
</defs>
</svg>
